<svg width="49" height="48" viewBox="0 0 49 48" fill="none" xmlns="http://www.w3.org/2000/svg">
<rect x="0.5" width="48" height="48" rx="24" fill="#F9FAFB"/>
<g clip-path="url(#clip0_268_2241)">
<path d="M36.5 24C36.5 17.3726 31.1274 12 24.5 12C17.8726 12 12.5 17.3725 12.5 24C12.5 29.9895 16.8882 34.954 22.625 35.8542V27.4688H19.5781V24H22.625V21.3563C22.625 18.3488 24.4166 16.6875 27.1575 16.6875C28.4705 16.6875 29.8438 16.9219 29.8438 16.9219V19.875H28.3306C26.8398 19.875 26.375 20.8 26.375 21.7491V24H29.7031L29.1711 27.4688H26.375V35.8542C32.1117 34.954 36.5 29.9896 36.5 24Z" fill="#1877F2"/>
<path d="M29.1711 27.4688L29.7031 24H26.375V21.7491C26.375 20.7999 26.8399 19.875 28.3306 19.875H29.8438V16.9219C29.8438 16.9219 28.4705 16.6875 27.1575 16.6875C24.4166 16.6875 22.625 18.3488 22.625 21.3563V24H19.5781V27.4688H22.625V35.8542C23.2453 35.9514 23.8722 36.0002 24.5 36C25.1278 36.0002 25.7547 35.9514 26.375 35.8542V27.4688H29.1711Z" fill="white"/>
</g>
<defs>
<clipPath id="clip0_268_2241">
<rect width="24" height="24" fill="white" transform="translate(12.5 12)"/>
</clipPath>
</defs>
</svg>
