<svg width="49" height="48" viewBox="0 0 49 48" fill="none" xmlns="http://www.w3.org/2000/svg">
<rect x="0.5" width="48" height="48" rx="24" fill="#F9FAFB"/>
<path d="M34.3055 22.0415H33.5V22H24.5V26H30.1515C29.327 28.3285 27.1115 30 24.5 30C21.1865 30 18.5 27.3135 18.5 24C18.5 20.6865 21.1865 18 24.5 18C26.0295 18 27.421 18.577 28.4805 19.5195L31.309 16.691C29.523 15.0265 27.134 14 24.5 14C18.9775 14 14.5 18.4775 14.5 24C14.5 29.5225 18.9775 34 24.5 34C30.0225 34 34.5 29.5225 34.5 24C34.5 23.3295 34.431 22.675 34.3055 22.0415Z" fill="#FFC107"/>
<path d="M15.6528 19.3455L18.9383 21.755C19.8273 19.554 21.9803 18 24.4998 18C26.0293 18 27.4208 18.577 28.4803 19.5195L31.3088 16.691C29.5228 15.0265 27.1338 14 24.4998 14C20.6588 14 17.3278 16.1685 15.6528 19.3455Z" fill="#FF3D00"/>
<path d="M24.5002 34.0001C27.0832 34.0001 29.4302 33.0116 31.2047 31.4041L28.1097 28.7851C27.0719 29.5743 25.8039 30.0011 24.5002 30.0001C21.8992 30.0001 19.6907 28.3416 18.8587 26.0271L15.5977 28.5396C17.2527 31.7781 20.6137 34.0001 24.5002 34.0001Z" fill="#6872A1"/>
<path d="M34.3055 22.0415H33.5V22H24.5V26H30.1515C29.7571 27.1082 29.0467 28.0766 28.108 28.7855L28.1095 28.7845L31.2045 31.4035C30.9855 31.6025 34.5 29 34.5 24C34.5 23.3295 34.431 22.675 34.3055 22.0415Z" fill="#1976D2"/>
</svg>
