<svg width="23" height="22" viewBox="0 0 23 22" fill="none" xmlns="http://www.w3.org/2000/svg">
<path d="M20.4885 9.20463H19.7502V9.16659H11.5002V12.8333H16.6807C15.9249 14.9677 13.894 16.4999 11.5002 16.4999C8.46279 16.4999 6.00016 14.0373 6.00016 10.9999C6.00016 7.96254 8.46279 5.49992 11.5002 5.49992C12.9022 5.49992 14.1777 6.02884 15.149 6.89279L17.7417 4.3C16.1046 2.77421 13.9147 1.83325 11.5002 1.83325C6.43787 1.83325 2.3335 5.93763 2.3335 10.9999C2.3335 16.0622 6.43787 20.1666 11.5002 20.1666C16.5625 20.1666 20.6668 16.0622 20.6668 10.9999C20.6668 10.3853 20.6036 9.78534 20.4885 9.20463Z" fill="#FFC107"/>
<path d="M3.39014 6.73329L6.40184 8.942C7.21676 6.92442 9.19035 5.49992 11.4999 5.49992C12.9019 5.49992 14.1775 6.02883 15.1487 6.89279L17.7415 4.3C16.1043 2.77421 13.9144 1.83325 11.4999 1.83325C7.97897 1.83325 4.92555 3.82104 3.39014 6.73329Z" fill="#FF3D00"/>
<path d="M11.5 20.1667C13.8677 20.1667 16.0191 19.2606 17.6458 17.7871L14.8087 15.3863C13.8574 16.1097 12.6951 16.501 11.5 16.5001C9.11573 16.5001 7.09127 14.9798 6.32861 12.8582L3.33936 15.1613C4.85644 18.1299 7.93736 20.1667 11.5 20.1667Z" fill="#4CAF50"/>
<path d="M20.4884 9.20479H19.75V9.16675H11.5V12.8334H16.6805C16.319 13.8493 15.6678 14.737 14.8073 15.3868L14.8087 15.3859L17.6458 17.7866C17.445 17.969 20.6667 15.5834 20.6667 11.0001C20.6667 10.3855 20.6034 9.7855 20.4884 9.20479Z" fill="#1976D2"/>
</svg>
